<svg xmlns="http://www.w3.org/2000/svg" viewBox="62.90 217.60 451.20 140.80" >
  <path style=" stroke:none;fill-rule:nonzero;fill:rgb(23.921204%,68.62793%,17.254639%);fill-opacity:1;" d="M 129.796875 249.632812 L 156.988281 293.753906 C 158.492188 290.035156 159.328125 285.96875 159.328125 281.710938 C 159.328125 264.828125 146.328125 250.988281 129.796875 249.632812 "/>
  <path style=" stroke:none;fill-rule:nonzero;fill:rgb(23.921204%,68.62793%,17.254639%);fill-opacity:1;" d="M 104.019531 304.117188 C 109.871094 310.152344 118.058594 313.90625 127.128906 313.90625 C 136.40625 313.90625 144.761719 309.976562 150.636719 303.699219 C 139.554688 300.953125 123.382812 299.277344 104.019531 304.117188 "/>
  <path style=" stroke:none;fill-rule:nonzero;fill:rgb(23.921204%,68.62793%,17.254639%);fill-opacity:1;" d="M 136.773438 287.996094 L 127.121094 272.335938 C 127.121094 272.335938 122.53125 280.007812 117.484375 288.332031 C 125 286.886719 131.554688 287.140625 136.773438 287.996094 "/>
  <path style=" stroke:none;fill-rule:nonzero;fill:rgb(23.921204%,68.62793%,17.254639%);fill-opacity:1;" d="M 94.929688 281.710938 C 94.929688 286.132812 95.824219 290.34375 97.4375 294.179688 C 106.457031 279.570312 119.050781 258.632812 124.453125 249.632812 C 107.925781 250.992188 94.929688 264.828125 94.929688 281.710938 "/>
  <path style=" stroke:none;fill-rule:nonzero;fill:rgb(0%,0%,0%);fill-opacity:1;" d="M 197.261719 305.5 L 218.515625 305.5 L 207.925781 278.867188 Z M 188.757812 326.433594 L 179.933594 326.433594 L 204.558594 269.644531 L 211.777344 269.644531 L 236.160156 326.433594 L 227.179688 326.433594 L 221.402344 312.476562 L 194.453125 312.476562 Z M 188.757812 326.433594 "/>
  <path style=" stroke:none;fill-rule:nonzero;fill:rgb(0%,0%,0%);fill-opacity:1;" d="M 272.097656 327.878906 C 268.351562 327.878906 265.089844 327.246094 262.308594 325.992188 C 259.53125 324.738281 257.230469 323.066406 255.414062 320.980469 C 253.59375 318.894531 252.246094 316.503906 251.359375 313.800781 C 250.480469 311.101562 250.039062 308.304688 250.039062 305.417969 L 250.039062 269.644531 L 257.980469 269.644531 L 257.980469 304.9375 C 257.980469 306.863281 258.21875 308.773438 258.699219 310.671875 C 259.183594 312.570312 259.96875 314.269531 261.066406 315.765625 C 262.164062 317.265625 263.605469 318.46875 265.398438 319.375 C 267.191406 320.285156 269.421875 320.738281 272.097656 320.738281 C 274.714844 320.738281 276.933594 320.285156 278.753906 319.375 C 280.570312 318.46875 282.027344 317.265625 283.125 315.765625 C 284.222656 314.269531 285.011719 312.570312 285.492188 310.671875 C 285.972656 308.773438 286.214844 306.863281 286.214844 304.9375 L 286.214844 269.644531 L 294.152344 269.644531 L 294.152344 305.417969 C 294.152344 308.304688 293.714844 311.101562 292.832031 313.800781 C 291.949219 316.503906 290.597656 318.894531 288.78125 320.980469 C 286.960938 323.066406 284.664062 324.738281 281.882812 325.992188 C 279.101562 327.246094 275.839844 327.878906 272.097656 327.878906 "/>
  <path style=" stroke:none;fill-rule:nonzero;fill:rgb(0%,0%,0%);fill-opacity:1;" d="M 323.511719 319.457031 L 333.457031 319.457031 C 336.875 319.457031 340.046875 318.976562 342.960938 318.011719 C 345.875 317.050781 348.386719 315.660156 350.5 313.839844 C 352.613281 312.023438 354.257812 309.777344 355.433594 307.101562 C 356.609375 304.429688 357.199219 301.40625 357.199219 298.039062 C 357.199219 294.511719 356.609375 291.410156 355.433594 288.734375 C 354.257812 286.0625 352.613281 283.832031 350.5 282.035156 C 348.386719 280.246094 345.875 278.882812 342.960938 277.945312 C 340.046875 277.011719 336.875 276.542969 333.457031 276.542969 L 323.511719 276.542969 Z M 315.570312 269.644531 L 335.0625 269.644531 C 338.695312 269.644531 342.332031 270.179688 345.96875 271.25 C 349.605469 272.320312 352.894531 274.003906 355.835938 276.304688 C 358.777344 278.601562 361.15625 281.542969 362.972656 285.125 C 364.789062 288.710938 365.699219 293.015625 365.699219 298.039062 C 365.699219 302.90625 364.789062 307.117188 362.972656 310.671875 C 361.15625 314.226562 358.777344 317.167969 355.835938 319.496094 C 352.894531 321.820312 349.605469 323.558594 345.96875 324.710938 C 342.332031 325.859375 338.695312 326.433594 335.0625 326.433594 L 315.570312 326.433594 Z M 315.570312 269.644531 "/>
  <path style=" stroke:none;fill-rule:nonzero;fill:rgb(0%,0%,0%);fill-opacity:1;" d="M 392.570312 326.433594 L 384.628906 326.433594 L 384.628906 269.644531 L 392.570312 269.644531 Z M 392.570312 326.433594 "/>
  <path style=" stroke:none;fill-rule:nonzero;fill:rgb(0%,0%,0%);fill-opacity:1;" d="M 425.21875 305.5 L 446.472656 305.5 L 435.886719 278.867188 Z M 416.714844 326.433594 L 407.890625 326.433594 L 432.515625 269.644531 L 439.734375 269.644531 L 464.117188 326.433594 L 455.136719 326.433594 L 449.359375 312.476562 L 422.410156 312.476562 Z M 416.714844 326.433594 "/>
  <path style=" stroke:none;fill-rule:nonzero;fill:rgb(0%,0%,0%);fill-opacity:1;" d="M 471.960938 320.703125 L 470.113281 320.703125 L 470.113281 319.765625 L 474.878906 319.765625 L 474.878906 320.703125 L 473.03125 320.703125 L 473.03125 325.792969 L 471.960938 325.792969 Z M 471.960938 320.703125 "/>
  <path style=" stroke:none;fill-rule:nonzero;fill:rgb(0%,0%,0%);fill-opacity:1;" d="M 475.578125 319.765625 L 477.253906 319.765625 L 478.820312 324.046875 L 478.84375 324.046875 L 480.394531 319.765625 L 482.078125 319.765625 L 482.078125 325.789062 L 481.015625 325.789062 L 481.015625 320.949219 L 481 320.949219 L 479.167969 325.789062 L 478.421875 325.789062 L 476.613281 320.949219 L 476.597656 320.949219 L 476.597656 325.789062 L 475.578125 325.789062 Z M 475.578125 319.765625 "/>
</svg>